<svg width="50" height="50" xmlns="http://www.w3.org/2000/svg" xmlns:xlink="http://www.w3.org/1999/xlink" xml:space="preserve" overflow="hidden"><defs><clipPath id="clip0"><rect x="96" y="432" width="50" height="50"/></clipPath><clipPath id="clip1"><rect x="97" y="433" width="49" height="49"/></clipPath><clipPath id="clip2"><rect x="97" y="433" width="49" height="49"/></clipPath><clipPath id="clip3"><rect x="97" y="433" width="49" height="49"/></clipPath></defs><g clip-path="url(#clip0)" transform="translate(-96 -432)"><g clip-path="url(#clip1)"><g clip-path="url(#clip2)"><g clip-path="url(#clip3)"><path d="M130.739 473.527 135.077 469.189 136.506 470.618 132.168 474.956 130.739 473.527ZM129.258 463.421 130.688 464.85 126.349 469.189 124.92 467.759 129.258 463.421ZM134.72 458.01 136.149 459.44 132.168 463.421 130.739 461.992 134.72 458.01ZM133.597 467.759 129.258 472.098 127.829 470.669 132.168 466.33 133.597 467.759ZM133.597 464.85 137.578 460.869 139.007 462.298 135.026 466.279 133.597 464.85ZM137.935 469.189 136.506 467.759 140.488 463.778 141.917 465.207 137.935 469.189ZM108.689 471.741 110.883 469.546 113.078 471.741 108.689 471.741ZM109.454 468.117 107.208 470.362 107.208 465.871 109.454 468.117ZM111.241 454.029 109.811 452.6 114.15 448.261 115.579 449.691 111.241 454.029ZM108.331 442.494 109.76 443.923 105.422 448.261 103.993 446.832 108.331 442.494ZM115.222 438.513 111.241 442.494 109.811 441.065 113.742 437.083 115.222 438.513ZM112.67 446.832 108.331 451.171 106.902 449.742 111.241 445.403 112.67 446.832ZM112.67 443.923 116.651 439.942 118.08 441.371 114.099 445.352 112.67 443.923ZM117.008 448.261 115.579 446.832 119.56 442.851 120.99 444.28 117.008 448.261ZM143.346 463.778 136.149 456.581C135.741 456.173 135.23 455.969 134.72 455.969 134.209 455.969 133.648 456.173 133.291 456.581L129.258 460.562 127.829 459.133 132.882 454.08C133.291 453.672 133.495 453.161 133.495 452.651 133.495 452.09 133.291 451.579 132.882 451.222L132.066 450.354 133.954 449.333 129.667 445.046 128.646 446.934 127.829 446.118C127.421 445.709 126.91 445.505 126.4 445.505 125.839 445.505 125.328 445.709 124.971 446.118L119.918 451.171 118.438 449.742 122.419 445.76C122.827 445.352 123.031 444.842 123.031 444.331 123.031 443.77 122.827 443.259 122.419 442.902L115.222 435.654C114.814 435.246 114.303 435.042 113.742 435.042 113.18 435.042 112.67 435.246 112.312 435.654L102.564 445.403C102.206 445.76 102.002 446.271 102.002 446.832 102.002 447.394 102.206 447.904 102.615 448.261L109.811 455.458C110.22 455.867 110.73 456.071 111.241 456.071 111.751 456.071 112.312 455.867 112.67 455.458L117.008 451.12 118.438 452.549 113.384 457.602C112.976 458.01 112.772 458.521 112.772 459.031 112.772 459.593 112.976 460.103 113.384 460.46L114.865 461.89 113.333 463.421C109.914 460.716 105.779 460.103 103.635 462.298L105.167 463.778 105.116 471.434C104.095 471.587 103.329 472.506 103.38 473.578 103.431 474.65 104.299 475.467 105.371 475.467 106.443 475.518 107.31 474.701 107.464 473.68L115.12 473.731 116.651 475.263C118.795 473.119 118.233 468.984 115.528 465.565L117.059 464.033 118.438 465.565C118.846 465.973 119.356 466.177 119.867 466.177 120.428 466.177 120.939 465.973 121.296 465.565L126.349 460.511 127.778 461.941 123.44 466.279C123.031 466.688 122.827 467.198 122.827 467.708 122.827 468.219 123.031 468.78 123.44 469.138L130.688 476.334C131.096 476.743 131.606 476.947 132.117 476.947 132.678 476.947 133.189 476.743 133.546 476.334L143.346 466.688C143.754 466.279 143.958 465.769 143.958 465.258 143.958 464.697 143.754 464.186 143.346 463.778Z" fill="#000000" fill-rule="nonzero" fill-opacity="1"/></g></g></g></g></svg>